<svg width="1920" height="1080" viewBox="0 0 1920 1080" fill="none" xmlns="http://www.w3.org/2000/svg">
<g opacity="0.4">
<path d="M158 0V1080" stroke="#CACACA"/>
<path d="M1920 179L-4.88758e-06 179" stroke="#CACACA"/>
<path d="M1920 723L-4.88758e-06 723" stroke="#CACACA"/>
<path d="M1920 360L-4.88758e-06 360" stroke="#CACACA"/>
<path d="M1920 905L-4.88758e-06 905" stroke="#CACACA"/>
<path d="M1920 542L-4.88758e-06 542" stroke="#CACACA"/>
<path d="M1118 0V1080" stroke="#CACACA"/>
<path d="M638 0V1080" stroke="#CACACA"/>
<path d="M1598 0V1080" stroke="#CACACA"/>
<path d="M318 0V1080" stroke="#CACACA"/>
<path d="M1278 0V1080" stroke="#CACACA"/>
<path d="M798 0V1080" stroke="#CACACA"/>
<path d="M1758 0V1080" stroke="#CACACA"/>
<path d="M478 0V1080" stroke="#CACACA"/>
<path d="M1438 0V1080" stroke="#CACACA"/>
<path d="M958 0V1080" stroke="#CACACA"/>
</g>
<g opacity="0.4">
<path d="M158 169V188.5" stroke="#CACACA" stroke-width="2" stroke-linecap="round"/>
<path d="M167.5 178.5H148" stroke="#CACACA" stroke-width="2" stroke-linecap="round"/>
<path d="M158 350.5V370" stroke="#CACACA" stroke-width="2" stroke-linecap="round"/>
<path d="M167.5 360H148" stroke="#CACACA" stroke-width="2" stroke-linecap="round"/>
<path d="M158 532.5V552" stroke="#CACACA" stroke-width="2" stroke-linecap="round"/>
<path d="M167.5 542H148" stroke="#CACACA" stroke-width="2" stroke-linecap="round"/>
<path d="M158 714V733.5" stroke="#CACACA" stroke-width="2" stroke-linecap="round"/>
<path d="M167.5 723.5H148" stroke="#CACACA" stroke-width="2" stroke-linecap="round"/>
<path d="M158 895.5V915" stroke="#CACACA" stroke-width="2" stroke-linecap="round"/>
<path d="M167.5 905H148" stroke="#CACACA" stroke-width="2" stroke-linecap="round"/>
<path d="M318 169V188.5" stroke="#CACACA" stroke-width="2" stroke-linecap="round"/>
<path d="M327.5 178.5H308" stroke="#CACACA" stroke-width="2" stroke-linecap="round"/>
<path d="M318 350.5V370" stroke="#CACACA" stroke-width="2" stroke-linecap="round"/>
<path d="M327.5 360H308" stroke="#CACACA" stroke-width="2" stroke-linecap="round"/>
<path d="M318 532.5V552" stroke="#CACACA" stroke-width="2" stroke-linecap="round"/>
<path d="M327.5 542H308" stroke="#CACACA" stroke-width="2" stroke-linecap="round"/>
<path d="M318 714V733.5" stroke="#CACACA" stroke-width="2" stroke-linecap="round"/>
<path d="M327.5 723.5H308" stroke="#CACACA" stroke-width="2" stroke-linecap="round"/>
<path d="M318 895.5V915" stroke="#CACACA" stroke-width="2" stroke-linecap="round"/>
<path d="M327.5 905H308" stroke="#CACACA" stroke-width="2" stroke-linecap="round"/>
<path d="M478 169V188.5" stroke="#CACACA" stroke-width="2" stroke-linecap="round"/>
<path d="M487.5 178.5H468" stroke="#CACACA" stroke-width="2" stroke-linecap="round"/>
<path d="M478 350.5V370" stroke="#CACACA" stroke-width="2" stroke-linecap="round"/>
<path d="M487.5 360H468" stroke="#CACACA" stroke-width="2" stroke-linecap="round"/>
<path d="M478 532.5V552" stroke="#CACACA" stroke-width="2" stroke-linecap="round"/>
<path d="M487.5 542H468" stroke="#CACACA" stroke-width="2" stroke-linecap="round"/>
<path d="M478 714V733.5" stroke="#CACACA" stroke-width="2" stroke-linecap="round"/>
<path d="M487.5 723.5H468" stroke="#CACACA" stroke-width="2" stroke-linecap="round"/>
<path d="M478 895.5V915" stroke="#CACACA" stroke-width="2" stroke-linecap="round"/>
<path d="M487.5 905H468" stroke="#CACACA" stroke-width="2" stroke-linecap="round"/>
<path d="M638 169V188.5" stroke="#CACACA" stroke-width="2" stroke-linecap="round"/>
<path d="M647.5 178.5H628" stroke="#CACACA" stroke-width="2" stroke-linecap="round"/>
<path d="M638 350.5V370" stroke="#CACACA" stroke-width="2" stroke-linecap="round"/>
<path d="M647.5 360H628" stroke="#CACACA" stroke-width="2" stroke-linecap="round"/>
<path d="M638 532.5V552" stroke="#CACACA" stroke-width="2" stroke-linecap="round"/>
<path d="M647.5 542H628" stroke="#CACACA" stroke-width="2" stroke-linecap="round"/>
<path d="M638 714V733.5" stroke="#CACACA" stroke-width="2" stroke-linecap="round"/>
<path d="M647.5 723.5H628" stroke="#CACACA" stroke-width="2" stroke-linecap="round"/>
<path d="M638 895.5V915" stroke="#CACACA" stroke-width="2" stroke-linecap="round"/>
<path d="M647.5 905H628" stroke="#CACACA" stroke-width="2" stroke-linecap="round"/>
<path d="M798 169V188.5" stroke="#CACACA" stroke-width="2" stroke-linecap="round"/>
<path d="M807.5 178.5H788" stroke="#CACACA" stroke-width="2" stroke-linecap="round"/>
<path d="M798 350.5V370" stroke="#CACACA" stroke-width="2" stroke-linecap="round"/>
<path d="M807.5 360H788" stroke="#CACACA" stroke-width="2" stroke-linecap="round"/>
<path d="M798 532.5V552" stroke="#CACACA" stroke-width="2" stroke-linecap="round"/>
<path d="M807.5 542H788" stroke="#CACACA" stroke-width="2" stroke-linecap="round"/>
<path d="M798 714V733.5" stroke="#CACACA" stroke-width="2" stroke-linecap="round"/>
<path d="M807.5 723.5H788" stroke="#CACACA" stroke-width="2" stroke-linecap="round"/>
<path d="M798 895.5V915" stroke="#CACACA" stroke-width="2" stroke-linecap="round"/>
<path d="M807.5 905H788" stroke="#CACACA" stroke-width="2" stroke-linecap="round"/>
<path d="M958 169V188.5" stroke="#CACACA" stroke-width="2" stroke-linecap="round"/>
<path d="M967.5 178.5H948" stroke="#CACACA" stroke-width="2" stroke-linecap="round"/>
<path d="M958 350.5V370" stroke="#CACACA" stroke-width="2" stroke-linecap="round"/>
<path d="M967.5 360H948" stroke="#CACACA" stroke-width="2" stroke-linecap="round"/>
<path d="M958 532.5V552" stroke="#CACACA" stroke-width="2" stroke-linecap="round"/>
<path d="M967.5 542H948" stroke="#CACACA" stroke-width="2" stroke-linecap="round"/>
<path d="M958 714V733.5" stroke="#CACACA" stroke-width="2" stroke-linecap="round"/>
<path d="M967.5 723.5H948" stroke="#CACACA" stroke-width="2" stroke-linecap="round"/>
<path d="M958 895.5V915" stroke="#CACACA" stroke-width="2" stroke-linecap="round"/>
<path d="M967.5 905H948" stroke="#CACACA" stroke-width="2" stroke-linecap="round"/>
<path d="M1118 169V188.5" stroke="#CACACA" stroke-width="2" stroke-linecap="round"/>
<path d="M1127.5 178.5H1108" stroke="#CACACA" stroke-width="2" stroke-linecap="round"/>
<path d="M1118 350.5V370" stroke="#CACACA" stroke-width="2" stroke-linecap="round"/>
<path d="M1127.5 360H1108" stroke="#CACACA" stroke-width="2" stroke-linecap="round"/>
<path d="M1118 532.5V552" stroke="#CACACA" stroke-width="2" stroke-linecap="round"/>
<path d="M1127.5 542H1108" stroke="#CACACA" stroke-width="2" stroke-linecap="round"/>
<path d="M1118 714V733.5" stroke="#CACACA" stroke-width="2" stroke-linecap="round"/>
<path d="M1127.5 723.5H1108" stroke="#CACACA" stroke-width="2" stroke-linecap="round"/>
<path d="M1118 895.5V915" stroke="#CACACA" stroke-width="2" stroke-linecap="round"/>
<path d="M1127.5 905H1108" stroke="#CACACA" stroke-width="2" stroke-linecap="round"/>
<path d="M1278 169V188.5" stroke="#CACACA" stroke-width="2" stroke-linecap="round"/>
<path d="M1287.5 178.5H1268" stroke="#CACACA" stroke-width="2" stroke-linecap="round"/>
<path d="M1278 350.5V370" stroke="#CACACA" stroke-width="2" stroke-linecap="round"/>
<path d="M1287.5 360H1268" stroke="#CACACA" stroke-width="2" stroke-linecap="round"/>
<path d="M1278 532.5V552" stroke="#CACACA" stroke-width="2" stroke-linecap="round"/>
<path d="M1287.5 542H1268" stroke="#CACACA" stroke-width="2" stroke-linecap="round"/>
<path d="M1278 714V733.5" stroke="#CACACA" stroke-width="2" stroke-linecap="round"/>
<path d="M1287.5 723.5H1268" stroke="#CACACA" stroke-width="2" stroke-linecap="round"/>
<path d="M1278 895.5V915" stroke="#CACACA" stroke-width="2" stroke-linecap="round"/>
<path d="M1287.5 905H1268" stroke="#CACACA" stroke-width="2" stroke-linecap="round"/>
<path d="M1438 169V188.5" stroke="#CACACA" stroke-width="2" stroke-linecap="round"/>
<path d="M1447.5 178.5H1428" stroke="#CACACA" stroke-width="2" stroke-linecap="round"/>
<path d="M1438 350.5V370" stroke="#CACACA" stroke-width="2" stroke-linecap="round"/>
<path d="M1447.5 360H1428" stroke="#CACACA" stroke-width="2" stroke-linecap="round"/>
<path d="M1438 532.5V552" stroke="#CACACA" stroke-width="2" stroke-linecap="round"/>
<path d="M1447.5 542H1428" stroke="#CACACA" stroke-width="2" stroke-linecap="round"/>
<path d="M1438 714V733.5" stroke="#CACACA" stroke-width="2" stroke-linecap="round"/>
<path d="M1447.5 723.5H1428" stroke="#CACACA" stroke-width="2" stroke-linecap="round"/>
<path d="M1438 895.5V915" stroke="#CACACA" stroke-width="2" stroke-linecap="round"/>
<path d="M1447.5 905H1428" stroke="#CACACA" stroke-width="2" stroke-linecap="round"/>
<path d="M1598 169V188.5" stroke="#CACACA" stroke-width="2" stroke-linecap="round"/>
<path d="M1607.5 178.5H1588" stroke="#CACACA" stroke-width="2" stroke-linecap="round"/>
<path d="M1598 350.5V370" stroke="#CACACA" stroke-width="2" stroke-linecap="round"/>
<path d="M1607.5 360H1588" stroke="#CACACA" stroke-width="2" stroke-linecap="round"/>
<path d="M1598 532.5V552" stroke="#CACACA" stroke-width="2" stroke-linecap="round"/>
<path d="M1607.5 542H1588" stroke="#CACACA" stroke-width="2" stroke-linecap="round"/>
<path d="M1598 714V733.5" stroke="#CACACA" stroke-width="2" stroke-linecap="round"/>
<path d="M1607.5 723.5H1588" stroke="#CACACA" stroke-width="2" stroke-linecap="round"/>
<path d="M1598 895.5V915" stroke="#CACACA" stroke-width="2" stroke-linecap="round"/>
<path d="M1607.5 905H1588" stroke="#CACACA" stroke-width="2" stroke-linecap="round"/>
<path d="M1758 169V188.5" stroke="#CACACA" stroke-width="2" stroke-linecap="round"/>
<path d="M1767.5 178.5H1748" stroke="#CACACA" stroke-width="2" stroke-linecap="round"/>
<path d="M1758 350.5V370" stroke="#CACACA" stroke-width="2" stroke-linecap="round"/>
<path d="M1767.5 360H1748" stroke="#CACACA" stroke-width="2" stroke-linecap="round"/>
<path d="M1758 532V551.5" stroke="#CACACA" stroke-width="2" stroke-linecap="round"/>
<path d="M1767.5 541.5H1748" stroke="#CACACA" stroke-width="2" stroke-linecap="round"/>
<path d="M1758 714V733.5" stroke="#CACACA" stroke-width="2" stroke-linecap="round"/>
<path d="M1767.5 723.5H1748" stroke="#CACACA" stroke-width="2" stroke-linecap="round"/>
<path d="M1758 895.5V915" stroke="#CACACA" stroke-width="2" stroke-linecap="round"/>
<path d="M1767.5 905H1748" stroke="#CACACA" stroke-width="2" stroke-linecap="round"/>
</g>
</svg>
