<svg width="135" height="45" viewBox="0 0 135 45" fill="none" xmlns="http://www.w3.org/2000/svg">
<path d="M91.5 22.428L0.499999 22.428" stroke="#EAEAEA" stroke-linecap="round"/>
<path d="M134.5 0.427979C132.391 0.461312 130.281 0.492979 128.172 0.522979C117.281 0.677861 106.391 0.78832 95.5 0.854356C93.5962 0.821442 91.9031 2.54369 91.9595 4.42798C91.9865 10.428 92 16.428 92 22.428C92 28.428 91.9865 34.428 91.9595 40.428C91.9031 42.3123 93.5962 44.0345 95.5 44.0016C106.391 44.0676 117.281 44.1781 128.172 44.333C130.281 44.363 132.391 44.3946 134.5 44.428C132.391 44.4613 130.281 44.493 128.172 44.523C117.281 44.6779 106.391 44.7883 95.5 44.8544C93.1425 44.9251 90.9933 42.805 91.0405 40.428C91.0135 34.428 91 28.428 91 22.428C91 16.428 91.0135 10.428 91.0405 4.42798C90.9933 2.05098 93.1425 -0.069098 95.5 0.00160095C106.391 0.0676368 117.281 0.178096 128.172 0.332979C130.281 0.362979 132.391 0.394645 134.5 0.427979Z" fill="#EAEAEA"/>
</svg>
